<?xml version="1.0" encoding="utf-8" standalone="no"?>
<!DOCTYPE svg PUBLIC "-//W3C//DTD SVG 1.1//EN"
  "http://www.w3.org/Graphics/SVG/1.1/DTD/svg11.dtd">
<svg xmlns:xlink="http://www.w3.org/1999/xlink" width="720pt" height="360pt" viewBox="0 0 720 360" xmlns="http://www.w3.org/2000/svg" version="1.1">
 <metadata>
  <rdf:RDF xmlns:dc="http://purl.org/dc/elements/1.1/" xmlns:cc="http://creativecommons.org/ns#" xmlns:rdf="http://www.w3.org/1999/02/22-rdf-syntax-ns#">
   <cc:Work>
    <dc:type rdf:resource="http://purl.org/dc/dcmitype/StillImage"/>
    <dc:date>2025-03-11T13:19:18.075722</dc:date>
    <dc:format>image/svg+xml</dc:format>
    <dc:creator>
     <cc:Agent>
      <dc:title>Matplotlib v3.8.4, https://matplotlib.org/</dc:title>
     </cc:Agent>
    </dc:creator>
   </cc:Work>
  </rdf:RDF>
 </metadata>
 <defs>
  <style type="text/css">*{stroke-linejoin: round; stroke-linecap: butt}</style>
 </defs>
 <g id="figure_1">
  <g id="patch_1">
   <path d="M 0 360 
L 720 360 
L 720 0 
L 0 0 
z
" style="fill: #ffffff"/>
  </g>
  <g id="axes_1">
   <g id="patch_2">
    <path d="M 90 320.4 
L 648 320.4 
L 648 43.2 
L 90 43.2 
z
" style="fill: #ffffff"/>
   </g>
   <g id="matplotlib.axis_1">
    <g id="xtick_1">
     <g id="line2d_1">
      <path d="M 115.363636 320.4 
L 115.363636 43.2 
" clip-path="url(#pae103c7114)" style="fill: none; stroke: #b0b0b0; stroke-width: 0.8; stroke-linecap: square"/>
     </g>
     <g id="line2d_2">
      <defs>
       <path id="m17a7c6a372" d="M 0 0 
L 0 3.5 
" style="stroke: #000000; stroke-width: 0.8"/>
      </defs>
      <g>
       <use xlink:href="#m17a7c6a372" x="115.363636" y="320.4" style="stroke: #000000; stroke-width: 0.8"/>
      </g>
     </g>
     <g id="text_1">
      <!-- 0.0 -->
      <g transform="translate(107.412074 334.998438) scale(0.1 -0.1)">
       <defs>
        <path id="DejaVuSans-30" d="M 2034 4250 
Q 1547 4250 1301 3770 
Q 1056 3291 1056 2328 
Q 1056 1369 1301 889 
Q 1547 409 2034 409 
Q 2525 409 2770 889 
Q 3016 1369 3016 2328 
Q 3016 3291 2770 3770 
Q 2525 4250 2034 4250 
z
M 2034 4750 
Q 2819 4750 3233 4129 
Q 3647 3509 3647 2328 
Q 3647 1150 3233 529 
Q 2819 -91 2034 -91 
Q 1250 -91 836 529 
Q 422 1150 422 2328 
Q 422 3509 836 4129 
Q 1250 4750 2034 4750 
z
" transform="scale(0.015625)"/>
        <path id="DejaVuSans-2e" d="M 684 794 
L 1344 794 
L 1344 0 
L 684 0 
L 684 794 
z
" transform="scale(0.015625)"/>
       </defs>
       <use xlink:href="#DejaVuSans-30"/>
       <use xlink:href="#DejaVuSans-2e" x="63.623047"/>
       <use xlink:href="#DejaVuSans-30" x="95.410156"/>
      </g>
     </g>
    </g>
    <g id="xtick_2">
     <g id="line2d_3">
      <path d="M 182.110048 320.4 
L 182.110048 43.2 
" clip-path="url(#pae103c7114)" style="fill: none; stroke: #b0b0b0; stroke-width: 0.8; stroke-linecap: square"/>
     </g>
     <g id="line2d_4">
      <g>
       <use xlink:href="#m17a7c6a372" x="182.110048" y="320.4" style="stroke: #000000; stroke-width: 0.8"/>
      </g>
     </g>
     <g id="text_2">
      <!-- 2.5 -->
      <g transform="translate(174.158485 334.998438) scale(0.1 -0.1)">
       <defs>
        <path id="DejaVuSans-32" d="M 1228 531 
L 3431 531 
L 3431 0 
L 469 0 
L 469 531 
Q 828 903 1448 1529 
Q 2069 2156 2228 2338 
Q 2531 2678 2651 2914 
Q 2772 3150 2772 3378 
Q 2772 3750 2511 3984 
Q 2250 4219 1831 4219 
Q 1534 4219 1204 4116 
Q 875 4013 500 3803 
L 500 4441 
Q 881 4594 1212 4672 
Q 1544 4750 1819 4750 
Q 2544 4750 2975 4387 
Q 3406 4025 3406 3419 
Q 3406 3131 3298 2873 
Q 3191 2616 2906 2266 
Q 2828 2175 2409 1742 
Q 1991 1309 1228 531 
z
" transform="scale(0.015625)"/>
        <path id="DejaVuSans-35" d="M 691 4666 
L 3169 4666 
L 3169 4134 
L 1269 4134 
L 1269 2991 
Q 1406 3038 1543 3061 
Q 1681 3084 1819 3084 
Q 2600 3084 3056 2656 
Q 3513 2228 3513 1497 
Q 3513 744 3044 326 
Q 2575 -91 1722 -91 
Q 1428 -91 1123 -41 
Q 819 9 494 109 
L 494 744 
Q 775 591 1075 516 
Q 1375 441 1709 441 
Q 2250 441 2565 725 
Q 2881 1009 2881 1497 
Q 2881 1984 2565 2268 
Q 2250 2553 1709 2553 
Q 1456 2553 1204 2497 
Q 953 2441 691 2322 
L 691 4666 
z
" transform="scale(0.015625)"/>
       </defs>
       <use xlink:href="#DejaVuSans-32"/>
       <use xlink:href="#DejaVuSans-2e" x="63.623047"/>
       <use xlink:href="#DejaVuSans-35" x="95.410156"/>
      </g>
     </g>
    </g>
    <g id="xtick_3">
     <g id="line2d_5">
      <path d="M 248.856459 320.4 
L 248.856459 43.2 
" clip-path="url(#pae103c7114)" style="fill: none; stroke: #b0b0b0; stroke-width: 0.8; stroke-linecap: square"/>
     </g>
     <g id="line2d_6">
      <g>
       <use xlink:href="#m17a7c6a372" x="248.856459" y="320.4" style="stroke: #000000; stroke-width: 0.8"/>
      </g>
     </g>
     <g id="text_3">
      <!-- 5.0 -->
      <g transform="translate(240.904897 334.998438) scale(0.1 -0.1)">
       <use xlink:href="#DejaVuSans-35"/>
       <use xlink:href="#DejaVuSans-2e" x="63.623047"/>
       <use xlink:href="#DejaVuSans-30" x="95.410156"/>
      </g>
     </g>
    </g>
    <g id="xtick_4">
     <g id="line2d_7">
      <path d="M 315.602871 320.4 
L 315.602871 43.2 
" clip-path="url(#pae103c7114)" style="fill: none; stroke: #b0b0b0; stroke-width: 0.8; stroke-linecap: square"/>
     </g>
     <g id="line2d_8">
      <g>
       <use xlink:href="#m17a7c6a372" x="315.602871" y="320.4" style="stroke: #000000; stroke-width: 0.8"/>
      </g>
     </g>
     <g id="text_4">
      <!-- 7.5 -->
      <g transform="translate(307.651308 334.998438) scale(0.1 -0.1)">
       <defs>
        <path id="DejaVuSans-37" d="M 525 4666 
L 3525 4666 
L 3525 4397 
L 1831 0 
L 1172 0 
L 2766 4134 
L 525 4134 
L 525 4666 
z
" transform="scale(0.015625)"/>
       </defs>
       <use xlink:href="#DejaVuSans-37"/>
       <use xlink:href="#DejaVuSans-2e" x="63.623047"/>
       <use xlink:href="#DejaVuSans-35" x="95.410156"/>
      </g>
     </g>
    </g>
    <g id="xtick_5">
     <g id="line2d_9">
      <path d="M 382.349282 320.4 
L 382.349282 43.2 
" clip-path="url(#pae103c7114)" style="fill: none; stroke: #b0b0b0; stroke-width: 0.8; stroke-linecap: square"/>
     </g>
     <g id="line2d_10">
      <g>
       <use xlink:href="#m17a7c6a372" x="382.349282" y="320.4" style="stroke: #000000; stroke-width: 0.8"/>
      </g>
     </g>
     <g id="text_5">
      <!-- 10.0 -->
      <g transform="translate(371.21647 334.998438) scale(0.1 -0.1)">
       <defs>
        <path id="DejaVuSans-31" d="M 794 531 
L 1825 531 
L 1825 4091 
L 703 3866 
L 703 4441 
L 1819 4666 
L 2450 4666 
L 2450 531 
L 3481 531 
L 3481 0 
L 794 0 
L 794 531 
z
" transform="scale(0.015625)"/>
       </defs>
       <use xlink:href="#DejaVuSans-31"/>
       <use xlink:href="#DejaVuSans-30" x="63.623047"/>
       <use xlink:href="#DejaVuSans-2e" x="127.246094"/>
       <use xlink:href="#DejaVuSans-30" x="159.033203"/>
      </g>
     </g>
    </g>
    <g id="xtick_6">
     <g id="line2d_11">
      <path d="M 449.095694 320.4 
L 449.095694 43.2 
" clip-path="url(#pae103c7114)" style="fill: none; stroke: #b0b0b0; stroke-width: 0.8; stroke-linecap: square"/>
     </g>
     <g id="line2d_12">
      <g>
       <use xlink:href="#m17a7c6a372" x="449.095694" y="320.4" style="stroke: #000000; stroke-width: 0.8"/>
      </g>
     </g>
     <g id="text_6">
      <!-- 12.5 -->
      <g transform="translate(437.962881 334.998438) scale(0.1 -0.1)">
       <use xlink:href="#DejaVuSans-31"/>
       <use xlink:href="#DejaVuSans-32" x="63.623047"/>
       <use xlink:href="#DejaVuSans-2e" x="127.246094"/>
       <use xlink:href="#DejaVuSans-35" x="159.033203"/>
      </g>
     </g>
    </g>
    <g id="xtick_7">
     <g id="line2d_13">
      <path d="M 515.842105 320.4 
L 515.842105 43.2 
" clip-path="url(#pae103c7114)" style="fill: none; stroke: #b0b0b0; stroke-width: 0.8; stroke-linecap: square"/>
     </g>
     <g id="line2d_14">
      <g>
       <use xlink:href="#m17a7c6a372" x="515.842105" y="320.4" style="stroke: #000000; stroke-width: 0.8"/>
      </g>
     </g>
     <g id="text_7">
      <!-- 15.0 -->
      <g transform="translate(504.709293 334.998438) scale(0.1 -0.1)">
       <use xlink:href="#DejaVuSans-31"/>
       <use xlink:href="#DejaVuSans-35" x="63.623047"/>
       <use xlink:href="#DejaVuSans-2e" x="127.246094"/>
       <use xlink:href="#DejaVuSans-30" x="159.033203"/>
      </g>
     </g>
    </g>
    <g id="xtick_8">
     <g id="line2d_15">
      <path d="M 582.588517 320.4 
L 582.588517 43.2 
" clip-path="url(#pae103c7114)" style="fill: none; stroke: #b0b0b0; stroke-width: 0.8; stroke-linecap: square"/>
     </g>
     <g id="line2d_16">
      <g>
       <use xlink:href="#m17a7c6a372" x="582.588517" y="320.4" style="stroke: #000000; stroke-width: 0.8"/>
      </g>
     </g>
     <g id="text_8">
      <!-- 17.5 -->
      <g transform="translate(571.455704 334.998438) scale(0.1 -0.1)">
       <use xlink:href="#DejaVuSans-31"/>
       <use xlink:href="#DejaVuSans-37" x="63.623047"/>
       <use xlink:href="#DejaVuSans-2e" x="127.246094"/>
       <use xlink:href="#DejaVuSans-35" x="159.033203"/>
      </g>
     </g>
    </g>
    <g id="text_9">
     <!-- Number of Events (k) -->
     <g transform="translate(315.601562 348.676562) scale(0.1 -0.1)">
      <defs>
       <path id="DejaVuSans-4e" d="M 628 4666 
L 1478 4666 
L 3547 763 
L 3547 4666 
L 4159 4666 
L 4159 0 
L 3309 0 
L 1241 3903 
L 1241 0 
L 628 0 
L 628 4666 
z
" transform="scale(0.015625)"/>
       <path id="DejaVuSans-75" d="M 544 1381 
L 544 3500 
L 1119 3500 
L 1119 1403 
Q 1119 906 1312 657 
Q 1506 409 1894 409 
Q 2359 409 2629 706 
Q 2900 1003 2900 1516 
L 2900 3500 
L 3475 3500 
L 3475 0 
L 2900 0 
L 2900 538 
Q 2691 219 2414 64 
Q 2138 -91 1772 -91 
Q 1169 -91 856 284 
Q 544 659 544 1381 
z
M 1991 3584 
L 1991 3584 
z
" transform="scale(0.015625)"/>
       <path id="DejaVuSans-6d" d="M 3328 2828 
Q 3544 3216 3844 3400 
Q 4144 3584 4550 3584 
Q 5097 3584 5394 3201 
Q 5691 2819 5691 2113 
L 5691 0 
L 5113 0 
L 5113 2094 
Q 5113 2597 4934 2840 
Q 4756 3084 4391 3084 
Q 3944 3084 3684 2787 
Q 3425 2491 3425 1978 
L 3425 0 
L 2847 0 
L 2847 2094 
Q 2847 2600 2669 2842 
Q 2491 3084 2119 3084 
Q 1678 3084 1418 2786 
Q 1159 2488 1159 1978 
L 1159 0 
L 581 0 
L 581 3500 
L 1159 3500 
L 1159 2956 
Q 1356 3278 1631 3431 
Q 1906 3584 2284 3584 
Q 2666 3584 2933 3390 
Q 3200 3197 3328 2828 
z
" transform="scale(0.015625)"/>
       <path id="DejaVuSans-62" d="M 3116 1747 
Q 3116 2381 2855 2742 
Q 2594 3103 2138 3103 
Q 1681 3103 1420 2742 
Q 1159 2381 1159 1747 
Q 1159 1113 1420 752 
Q 1681 391 2138 391 
Q 2594 391 2855 752 
Q 3116 1113 3116 1747 
z
M 1159 2969 
Q 1341 3281 1617 3432 
Q 1894 3584 2278 3584 
Q 2916 3584 3314 3078 
Q 3713 2572 3713 1747 
Q 3713 922 3314 415 
Q 2916 -91 2278 -91 
Q 1894 -91 1617 61 
Q 1341 213 1159 525 
L 1159 0 
L 581 0 
L 581 4863 
L 1159 4863 
L 1159 2969 
z
" transform="scale(0.015625)"/>
       <path id="DejaVuSans-65" d="M 3597 1894 
L 3597 1613 
L 953 1613 
Q 991 1019 1311 708 
Q 1631 397 2203 397 
Q 2534 397 2845 478 
Q 3156 559 3463 722 
L 3463 178 
Q 3153 47 2828 -22 
Q 2503 -91 2169 -91 
Q 1331 -91 842 396 
Q 353 884 353 1716 
Q 353 2575 817 3079 
Q 1281 3584 2069 3584 
Q 2775 3584 3186 3129 
Q 3597 2675 3597 1894 
z
M 3022 2063 
Q 3016 2534 2758 2815 
Q 2500 3097 2075 3097 
Q 1594 3097 1305 2825 
Q 1016 2553 972 2059 
L 3022 2063 
z
" transform="scale(0.015625)"/>
       <path id="DejaVuSans-72" d="M 2631 2963 
Q 2534 3019 2420 3045 
Q 2306 3072 2169 3072 
Q 1681 3072 1420 2755 
Q 1159 2438 1159 1844 
L 1159 0 
L 581 0 
L 581 3500 
L 1159 3500 
L 1159 2956 
Q 1341 3275 1631 3429 
Q 1922 3584 2338 3584 
Q 2397 3584 2469 3576 
Q 2541 3569 2628 3553 
L 2631 2963 
z
" transform="scale(0.015625)"/>
       <path id="DejaVuSans-20" transform="scale(0.015625)"/>
       <path id="DejaVuSans-6f" d="M 1959 3097 
Q 1497 3097 1228 2736 
Q 959 2375 959 1747 
Q 959 1119 1226 758 
Q 1494 397 1959 397 
Q 2419 397 2687 759 
Q 2956 1122 2956 1747 
Q 2956 2369 2687 2733 
Q 2419 3097 1959 3097 
z
M 1959 3584 
Q 2709 3584 3137 3096 
Q 3566 2609 3566 1747 
Q 3566 888 3137 398 
Q 2709 -91 1959 -91 
Q 1206 -91 779 398 
Q 353 888 353 1747 
Q 353 2609 779 3096 
Q 1206 3584 1959 3584 
z
" transform="scale(0.015625)"/>
       <path id="DejaVuSans-66" d="M 2375 4863 
L 2375 4384 
L 1825 4384 
Q 1516 4384 1395 4259 
Q 1275 4134 1275 3809 
L 1275 3500 
L 2222 3500 
L 2222 3053 
L 1275 3053 
L 1275 0 
L 697 0 
L 697 3053 
L 147 3053 
L 147 3500 
L 697 3500 
L 697 3744 
Q 697 4328 969 4595 
Q 1241 4863 1831 4863 
L 2375 4863 
z
" transform="scale(0.015625)"/>
       <path id="DejaVuSans-45" d="M 628 4666 
L 3578 4666 
L 3578 4134 
L 1259 4134 
L 1259 2753 
L 3481 2753 
L 3481 2222 
L 1259 2222 
L 1259 531 
L 3634 531 
L 3634 0 
L 628 0 
L 628 4666 
z
" transform="scale(0.015625)"/>
       <path id="DejaVuSans-76" d="M 191 3500 
L 800 3500 
L 1894 563 
L 2988 3500 
L 3597 3500 
L 2284 0 
L 1503 0 
L 191 3500 
z
" transform="scale(0.015625)"/>
       <path id="DejaVuSans-6e" d="M 3513 2113 
L 3513 0 
L 2938 0 
L 2938 2094 
Q 2938 2591 2744 2837 
Q 2550 3084 2163 3084 
Q 1697 3084 1428 2787 
Q 1159 2491 1159 1978 
L 1159 0 
L 581 0 
L 581 3500 
L 1159 3500 
L 1159 2956 
Q 1366 3272 1645 3428 
Q 1925 3584 2291 3584 
Q 2894 3584 3203 3211 
Q 3513 2838 3513 2113 
z
" transform="scale(0.015625)"/>
       <path id="DejaVuSans-74" d="M 1172 4494 
L 1172 3500 
L 2356 3500 
L 2356 3053 
L 1172 3053 
L 1172 1153 
Q 1172 725 1289 603 
Q 1406 481 1766 481 
L 2356 481 
L 2356 0 
L 1766 0 
Q 1100 0 847 248 
Q 594 497 594 1153 
L 594 3053 
L 172 3053 
L 172 3500 
L 594 3500 
L 594 4494 
L 1172 4494 
z
" transform="scale(0.015625)"/>
       <path id="DejaVuSans-73" d="M 2834 3397 
L 2834 2853 
Q 2591 2978 2328 3040 
Q 2066 3103 1784 3103 
Q 1356 3103 1142 2972 
Q 928 2841 928 2578 
Q 928 2378 1081 2264 
Q 1234 2150 1697 2047 
L 1894 2003 
Q 2506 1872 2764 1633 
Q 3022 1394 3022 966 
Q 3022 478 2636 193 
Q 2250 -91 1575 -91 
Q 1294 -91 989 -36 
Q 684 19 347 128 
L 347 722 
Q 666 556 975 473 
Q 1284 391 1588 391 
Q 1994 391 2212 530 
Q 2431 669 2431 922 
Q 2431 1156 2273 1281 
Q 2116 1406 1581 1522 
L 1381 1569 
Q 847 1681 609 1914 
Q 372 2147 372 2553 
Q 372 3047 722 3315 
Q 1072 3584 1716 3584 
Q 2034 3584 2315 3537 
Q 2597 3491 2834 3397 
z
" transform="scale(0.015625)"/>
       <path id="DejaVuSans-28" d="M 1984 4856 
Q 1566 4138 1362 3434 
Q 1159 2731 1159 2009 
Q 1159 1288 1364 580 
Q 1569 -128 1984 -844 
L 1484 -844 
Q 1016 -109 783 600 
Q 550 1309 550 2009 
Q 550 2706 781 3412 
Q 1013 4119 1484 4856 
L 1984 4856 
z
" transform="scale(0.015625)"/>
       <path id="DejaVuSans-6b" d="M 581 4863 
L 1159 4863 
L 1159 1991 
L 2875 3500 
L 3609 3500 
L 1753 1863 
L 3688 0 
L 2938 0 
L 1159 1709 
L 1159 0 
L 581 0 
L 581 4863 
z
" transform="scale(0.015625)"/>
       <path id="DejaVuSans-29" d="M 513 4856 
L 1013 4856 
Q 1481 4119 1714 3412 
Q 1947 2706 1947 2009 
Q 1947 1309 1714 600 
Q 1481 -109 1013 -844 
L 513 -844 
Q 928 -128 1133 580 
Q 1338 1288 1338 2009 
Q 1338 2731 1133 3434 
Q 928 4138 513 4856 
z
" transform="scale(0.015625)"/>
      </defs>
      <use xlink:href="#DejaVuSans-4e"/>
      <use xlink:href="#DejaVuSans-75" x="74.804688"/>
      <use xlink:href="#DejaVuSans-6d" x="138.183594"/>
      <use xlink:href="#DejaVuSans-62" x="235.595703"/>
      <use xlink:href="#DejaVuSans-65" x="299.072266"/>
      <use xlink:href="#DejaVuSans-72" x="360.595703"/>
      <use xlink:href="#DejaVuSans-20" x="401.708984"/>
      <use xlink:href="#DejaVuSans-6f" x="433.496094"/>
      <use xlink:href="#DejaVuSans-66" x="494.677734"/>
      <use xlink:href="#DejaVuSans-20" x="529.882812"/>
      <use xlink:href="#DejaVuSans-45" x="561.669922"/>
      <use xlink:href="#DejaVuSans-76" x="624.853516"/>
      <use xlink:href="#DejaVuSans-65" x="684.033203"/>
      <use xlink:href="#DejaVuSans-6e" x="745.556641"/>
      <use xlink:href="#DejaVuSans-74" x="808.935547"/>
      <use xlink:href="#DejaVuSans-73" x="848.144531"/>
      <use xlink:href="#DejaVuSans-20" x="900.244141"/>
      <use xlink:href="#DejaVuSans-28" x="932.03125"/>
      <use xlink:href="#DejaVuSans-6b" x="971.044922"/>
      <use xlink:href="#DejaVuSans-29" x="1028.955078"/>
     </g>
    </g>
   </g>
   <g id="matplotlib.axis_2">
    <g id="ytick_1">
     <g id="line2d_17">
      <path d="M 90 307.8 
L 648 307.8 
" clip-path="url(#pae103c7114)" style="fill: none; stroke: #b0b0b0; stroke-width: 0.8; stroke-linecap: square"/>
     </g>
     <g id="line2d_18">
      <defs>
       <path id="m7571684d5d" d="M 0 0 
L -3.5 0 
" style="stroke: #000000; stroke-width: 0.8"/>
      </defs>
      <g>
       <use xlink:href="#m7571684d5d" x="90" y="307.8" style="stroke: #000000; stroke-width: 0.8"/>
      </g>
     </g>
     <g id="text_10">
      <!-- 0.00 -->
      <g transform="translate(60.734375 311.599219) scale(0.1 -0.1)">
       <use xlink:href="#DejaVuSans-30"/>
       <use xlink:href="#DejaVuSans-2e" x="63.623047"/>
       <use xlink:href="#DejaVuSans-30" x="95.410156"/>
       <use xlink:href="#DejaVuSans-30" x="159.033203"/>
      </g>
     </g>
    </g>
    <g id="ytick_2">
     <g id="line2d_19">
      <path d="M 90 261.248947 
L 648 261.248947 
" clip-path="url(#pae103c7114)" style="fill: none; stroke: #b0b0b0; stroke-width: 0.8; stroke-linecap: square"/>
     </g>
     <g id="line2d_20">
      <g>
       <use xlink:href="#m7571684d5d" x="90" y="261.248947" style="stroke: #000000; stroke-width: 0.8"/>
      </g>
     </g>
     <g id="text_11">
      <!-- 0.05 -->
      <g transform="translate(60.734375 265.048165) scale(0.1 -0.1)">
       <use xlink:href="#DejaVuSans-30"/>
       <use xlink:href="#DejaVuSans-2e" x="63.623047"/>
       <use xlink:href="#DejaVuSans-30" x="95.410156"/>
       <use xlink:href="#DejaVuSans-35" x="159.033203"/>
      </g>
     </g>
    </g>
    <g id="ytick_3">
     <g id="line2d_21">
      <path d="M 90 214.697893 
L 648 214.697893 
" clip-path="url(#pae103c7114)" style="fill: none; stroke: #b0b0b0; stroke-width: 0.8; stroke-linecap: square"/>
     </g>
     <g id="line2d_22">
      <g>
       <use xlink:href="#m7571684d5d" x="90" y="214.697893" style="stroke: #000000; stroke-width: 0.8"/>
      </g>
     </g>
     <g id="text_12">
      <!-- 0.10 -->
      <g transform="translate(60.734375 218.497112) scale(0.1 -0.1)">
       <use xlink:href="#DejaVuSans-30"/>
       <use xlink:href="#DejaVuSans-2e" x="63.623047"/>
       <use xlink:href="#DejaVuSans-31" x="95.410156"/>
       <use xlink:href="#DejaVuSans-30" x="159.033203"/>
      </g>
     </g>
    </g>
    <g id="ytick_4">
     <g id="line2d_23">
      <path d="M 90 168.14684 
L 648 168.14684 
" clip-path="url(#pae103c7114)" style="fill: none; stroke: #b0b0b0; stroke-width: 0.8; stroke-linecap: square"/>
     </g>
     <g id="line2d_24">
      <g>
       <use xlink:href="#m7571684d5d" x="90" y="168.14684" style="stroke: #000000; stroke-width: 0.8"/>
      </g>
     </g>
     <g id="text_13">
      <!-- 0.15 -->
      <g transform="translate(60.734375 171.946058) scale(0.1 -0.1)">
       <use xlink:href="#DejaVuSans-30"/>
       <use xlink:href="#DejaVuSans-2e" x="63.623047"/>
       <use xlink:href="#DejaVuSans-31" x="95.410156"/>
       <use xlink:href="#DejaVuSans-35" x="159.033203"/>
      </g>
     </g>
    </g>
    <g id="ytick_5">
     <g id="line2d_25">
      <path d="M 90 121.595786 
L 648 121.595786 
" clip-path="url(#pae103c7114)" style="fill: none; stroke: #b0b0b0; stroke-width: 0.8; stroke-linecap: square"/>
     </g>
     <g id="line2d_26">
      <g>
       <use xlink:href="#m7571684d5d" x="90" y="121.595786" style="stroke: #000000; stroke-width: 0.8"/>
      </g>
     </g>
     <g id="text_14">
      <!-- 0.20 -->
      <g transform="translate(60.734375 125.395005) scale(0.1 -0.1)">
       <use xlink:href="#DejaVuSans-30"/>
       <use xlink:href="#DejaVuSans-2e" x="63.623047"/>
       <use xlink:href="#DejaVuSans-32" x="95.410156"/>
       <use xlink:href="#DejaVuSans-30" x="159.033203"/>
      </g>
     </g>
    </g>
    <g id="ytick_6">
     <g id="line2d_27">
      <path d="M 90 75.044733 
L 648 75.044733 
" clip-path="url(#pae103c7114)" style="fill: none; stroke: #b0b0b0; stroke-width: 0.8; stroke-linecap: square"/>
     </g>
     <g id="line2d_28">
      <g>
       <use xlink:href="#m7571684d5d" x="90" y="75.044733" style="stroke: #000000; stroke-width: 0.8"/>
      </g>
     </g>
     <g id="text_15">
      <!-- 0.25 -->
      <g transform="translate(60.734375 78.843952) scale(0.1 -0.1)">
       <use xlink:href="#DejaVuSans-30"/>
       <use xlink:href="#DejaVuSans-2e" x="63.623047"/>
       <use xlink:href="#DejaVuSans-32" x="95.410156"/>
       <use xlink:href="#DejaVuSans-35" x="159.033203"/>
      </g>
     </g>
    </g>
    <g id="text_16">
     <!-- Probability Mass Function (PMF) -->
     <g transform="translate(54.654687 260.954687) rotate(-90) scale(0.1 -0.1)">
      <defs>
       <path id="DejaVuSans-50" d="M 1259 4147 
L 1259 2394 
L 2053 2394 
Q 2494 2394 2734 2622 
Q 2975 2850 2975 3272 
Q 2975 3691 2734 3919 
Q 2494 4147 2053 4147 
L 1259 4147 
z
M 628 4666 
L 2053 4666 
Q 2838 4666 3239 4311 
Q 3641 3956 3641 3272 
Q 3641 2581 3239 2228 
Q 2838 1875 2053 1875 
L 1259 1875 
L 1259 0 
L 628 0 
L 628 4666 
z
" transform="scale(0.015625)"/>
       <path id="DejaVuSans-61" d="M 2194 1759 
Q 1497 1759 1228 1600 
Q 959 1441 959 1056 
Q 959 750 1161 570 
Q 1363 391 1709 391 
Q 2188 391 2477 730 
Q 2766 1069 2766 1631 
L 2766 1759 
L 2194 1759 
z
M 3341 1997 
L 3341 0 
L 2766 0 
L 2766 531 
Q 2569 213 2275 61 
Q 1981 -91 1556 -91 
Q 1019 -91 701 211 
Q 384 513 384 1019 
Q 384 1609 779 1909 
Q 1175 2209 1959 2209 
L 2766 2209 
L 2766 2266 
Q 2766 2663 2505 2880 
Q 2244 3097 1772 3097 
Q 1472 3097 1187 3025 
Q 903 2953 641 2809 
L 641 3341 
Q 956 3463 1253 3523 
Q 1550 3584 1831 3584 
Q 2591 3584 2966 3190 
Q 3341 2797 3341 1997 
z
" transform="scale(0.015625)"/>
       <path id="DejaVuSans-69" d="M 603 3500 
L 1178 3500 
L 1178 0 
L 603 0 
L 603 3500 
z
M 603 4863 
L 1178 4863 
L 1178 4134 
L 603 4134 
L 603 4863 
z
" transform="scale(0.015625)"/>
       <path id="DejaVuSans-6c" d="M 603 4863 
L 1178 4863 
L 1178 0 
L 603 0 
L 603 4863 
z
" transform="scale(0.015625)"/>
       <path id="DejaVuSans-79" d="M 2059 -325 
Q 1816 -950 1584 -1140 
Q 1353 -1331 966 -1331 
L 506 -1331 
L 506 -850 
L 844 -850 
Q 1081 -850 1212 -737 
Q 1344 -625 1503 -206 
L 1606 56 
L 191 3500 
L 800 3500 
L 1894 763 
L 2988 3500 
L 3597 3500 
L 2059 -325 
z
" transform="scale(0.015625)"/>
       <path id="DejaVuSans-4d" d="M 628 4666 
L 1569 4666 
L 2759 1491 
L 3956 4666 
L 4897 4666 
L 4897 0 
L 4281 0 
L 4281 4097 
L 3078 897 
L 2444 897 
L 1241 4097 
L 1241 0 
L 628 0 
L 628 4666 
z
" transform="scale(0.015625)"/>
       <path id="DejaVuSans-46" d="M 628 4666 
L 3309 4666 
L 3309 4134 
L 1259 4134 
L 1259 2759 
L 3109 2759 
L 3109 2228 
L 1259 2228 
L 1259 0 
L 628 0 
L 628 4666 
z
" transform="scale(0.015625)"/>
       <path id="DejaVuSans-63" d="M 3122 3366 
L 3122 2828 
Q 2878 2963 2633 3030 
Q 2388 3097 2138 3097 
Q 1578 3097 1268 2742 
Q 959 2388 959 1747 
Q 959 1106 1268 751 
Q 1578 397 2138 397 
Q 2388 397 2633 464 
Q 2878 531 3122 666 
L 3122 134 
Q 2881 22 2623 -34 
Q 2366 -91 2075 -91 
Q 1284 -91 818 406 
Q 353 903 353 1747 
Q 353 2603 823 3093 
Q 1294 3584 2113 3584 
Q 2378 3584 2631 3529 
Q 2884 3475 3122 3366 
z
" transform="scale(0.015625)"/>
      </defs>
      <use xlink:href="#DejaVuSans-50"/>
      <use xlink:href="#DejaVuSans-72" x="58.552734"/>
      <use xlink:href="#DejaVuSans-6f" x="97.416016"/>
      <use xlink:href="#DejaVuSans-62" x="158.597656"/>
      <use xlink:href="#DejaVuSans-61" x="222.074219"/>
      <use xlink:href="#DejaVuSans-62" x="283.353516"/>
      <use xlink:href="#DejaVuSans-69" x="346.830078"/>
      <use xlink:href="#DejaVuSans-6c" x="374.613281"/>
      <use xlink:href="#DejaVuSans-69" x="402.396484"/>
      <use xlink:href="#DejaVuSans-74" x="430.179688"/>
      <use xlink:href="#DejaVuSans-79" x="469.388672"/>
      <use xlink:href="#DejaVuSans-20" x="528.568359"/>
      <use xlink:href="#DejaVuSans-4d" x="560.355469"/>
      <use xlink:href="#DejaVuSans-61" x="646.634766"/>
      <use xlink:href="#DejaVuSans-73" x="707.914062"/>
      <use xlink:href="#DejaVuSans-73" x="760.013672"/>
      <use xlink:href="#DejaVuSans-20" x="812.113281"/>
      <use xlink:href="#DejaVuSans-46" x="843.900391"/>
      <use xlink:href="#DejaVuSans-75" x="895.919922"/>
      <use xlink:href="#DejaVuSans-6e" x="959.298828"/>
      <use xlink:href="#DejaVuSans-63" x="1022.677734"/>
      <use xlink:href="#DejaVuSans-74" x="1077.658203"/>
      <use xlink:href="#DejaVuSans-69" x="1116.867188"/>
      <use xlink:href="#DejaVuSans-6f" x="1144.650391"/>
      <use xlink:href="#DejaVuSans-6e" x="1205.832031"/>
      <use xlink:href="#DejaVuSans-20" x="1269.210938"/>
      <use xlink:href="#DejaVuSans-28" x="1300.998047"/>
      <use xlink:href="#DejaVuSans-50" x="1340.011719"/>
      <use xlink:href="#DejaVuSans-4d" x="1400.314453"/>
      <use xlink:href="#DejaVuSans-46" x="1486.59375"/>
      <use xlink:href="#DejaVuSans-29" x="1544.113281"/>
     </g>
    </g>
   </g>
   <g id="line2d_29">
    <path d="M 115.363636 181.8 
L 142.062201 55.8 
L 168.760766 55.8 
L 195.45933 139.8 
L 222.157895 223.8 
L 248.856459 274.2 
L 275.555024 296.6 
L 302.253589 304.6 
L 328.952153 307 
L 355.650718 307.622222 
L 382.349282 307.764444 
L 409.047847 307.793535 
L 435.746411 307.798923 
L 462.444976 307.799834 
L 489.143541 307.799976 
L 515.842105 307.799997 
L 542.54067 307.8 
L 569.239234 307.8 
L 595.937799 307.8 
L 622.636364 307.8 
" clip-path="url(#pae103c7114)" style="fill: none; stroke: #1f77b4; stroke-width: 1.5; stroke-linecap: square"/>
    <defs>
     <path id="m13b8e38df0" d="M 0 3 
C 0.795609 3 1.55874 2.683901 2.12132 2.12132 
C 2.683901 1.55874 3 0.795609 3 0 
C 3 -0.795609 2.683901 -1.55874 2.12132 -2.12132 
C 1.55874 -2.683901 0.795609 -3 0 -3 
C -0.795609 -3 -1.55874 -2.683901 -2.12132 -2.12132 
C -2.683901 -1.55874 -3 -0.795609 -3 0 
C -3 0.795609 -2.683901 1.55874 -2.12132 2.12132 
C -1.55874 2.683901 -0.795609 3 0 3 
z
" style="stroke: #1f77b4"/>
    </defs>
    <g clip-path="url(#pae103c7114)">
     <use xlink:href="#m13b8e38df0" x="115.363636" y="181.8" style="fill: #1f77b4; stroke: #1f77b4"/>
     <use xlink:href="#m13b8e38df0" x="142.062201" y="55.8" style="fill: #1f77b4; stroke: #1f77b4"/>
     <use xlink:href="#m13b8e38df0" x="168.760766" y="55.8" style="fill: #1f77b4; stroke: #1f77b4"/>
     <use xlink:href="#m13b8e38df0" x="195.45933" y="139.8" style="fill: #1f77b4; stroke: #1f77b4"/>
     <use xlink:href="#m13b8e38df0" x="222.157895" y="223.8" style="fill: #1f77b4; stroke: #1f77b4"/>
     <use xlink:href="#m13b8e38df0" x="248.856459" y="274.2" style="fill: #1f77b4; stroke: #1f77b4"/>
     <use xlink:href="#m13b8e38df0" x="275.555024" y="296.6" style="fill: #1f77b4; stroke: #1f77b4"/>
     <use xlink:href="#m13b8e38df0" x="302.253589" y="304.6" style="fill: #1f77b4; stroke: #1f77b4"/>
     <use xlink:href="#m13b8e38df0" x="328.952153" y="307" style="fill: #1f77b4; stroke: #1f77b4"/>
     <use xlink:href="#m13b8e38df0" x="355.650718" y="307.622222" style="fill: #1f77b4; stroke: #1f77b4"/>
     <use xlink:href="#m13b8e38df0" x="382.349282" y="307.764444" style="fill: #1f77b4; stroke: #1f77b4"/>
     <use xlink:href="#m13b8e38df0" x="409.047847" y="307.793535" style="fill: #1f77b4; stroke: #1f77b4"/>
     <use xlink:href="#m13b8e38df0" x="435.746411" y="307.798923" style="fill: #1f77b4; stroke: #1f77b4"/>
     <use xlink:href="#m13b8e38df0" x="462.444976" y="307.799834" style="fill: #1f77b4; stroke: #1f77b4"/>
     <use xlink:href="#m13b8e38df0" x="489.143541" y="307.799976" style="fill: #1f77b4; stroke: #1f77b4"/>
     <use xlink:href="#m13b8e38df0" x="515.842105" y="307.799997" style="fill: #1f77b4; stroke: #1f77b4"/>
     <use xlink:href="#m13b8e38df0" x="542.54067" y="307.8" style="fill: #1f77b4; stroke: #1f77b4"/>
     <use xlink:href="#m13b8e38df0" x="569.239234" y="307.8" style="fill: #1f77b4; stroke: #1f77b4"/>
     <use xlink:href="#m13b8e38df0" x="595.937799" y="307.8" style="fill: #1f77b4; stroke: #1f77b4"/>
     <use xlink:href="#m13b8e38df0" x="622.636364" y="307.8" style="fill: #1f77b4; stroke: #1f77b4"/>
    </g>
   </g>
   <g id="line2d_30">
    <path d="M 115.363636 301.526829 
L 142.062201 276.434147 
L 168.760766 229.385367 
L 195.45933 177.108946 
L 222.157895 144.436182 
L 248.856459 144.436182 
L 275.555024 171.663485 
L 302.253589 210.559632 
L 328.952153 247.02477 
L 355.650718 274.035983 
L 382.349282 290.917992 
L 409.047847 300.12636 
L 435.746411 304.60265 
L 462.444976 306.57025 
L 489.143541 307.360804 
L 515.842105 307.653601 
L 542.54067 307.75425 
L 569.239234 307.786544 
L 595.937799 307.796262 
L 622.636364 307.799016 
" clip-path="url(#pae103c7114)" style="fill: none; stroke: #ff7f0e; stroke-width: 1.5; stroke-linecap: square"/>
    <defs>
     <path id="mc5e4495025" d="M 0 3 
C 0.795609 3 1.55874 2.683901 2.12132 2.12132 
C 2.683901 1.55874 3 0.795609 3 0 
C 3 -0.795609 2.683901 -1.55874 2.12132 -2.12132 
C 1.55874 -2.683901 0.795609 -3 0 -3 
C -0.795609 -3 -1.55874 -2.683901 -2.12132 -2.12132 
C -2.683901 -1.55874 -3 -0.795609 -3 0 
C -3 0.795609 -2.683901 1.55874 -2.12132 2.12132 
C -1.55874 2.683901 -0.795609 3 0 3 
z
" style="stroke: #ff7f0e"/>
    </defs>
    <g clip-path="url(#pae103c7114)">
     <use xlink:href="#mc5e4495025" x="115.363636" y="301.526829" style="fill: #ff7f0e; stroke: #ff7f0e"/>
     <use xlink:href="#mc5e4495025" x="142.062201" y="276.434147" style="fill: #ff7f0e; stroke: #ff7f0e"/>
     <use xlink:href="#mc5e4495025" x="168.760766" y="229.385367" style="fill: #ff7f0e; stroke: #ff7f0e"/>
     <use xlink:href="#mc5e4495025" x="195.45933" y="177.108946" style="fill: #ff7f0e; stroke: #ff7f0e"/>
     <use xlink:href="#mc5e4495025" x="222.157895" y="144.436182" style="fill: #ff7f0e; stroke: #ff7f0e"/>
     <use xlink:href="#mc5e4495025" x="248.856459" y="144.436182" style="fill: #ff7f0e; stroke: #ff7f0e"/>
     <use xlink:href="#mc5e4495025" x="275.555024" y="171.663485" style="fill: #ff7f0e; stroke: #ff7f0e"/>
     <use xlink:href="#mc5e4495025" x="302.253589" y="210.559632" style="fill: #ff7f0e; stroke: #ff7f0e"/>
     <use xlink:href="#mc5e4495025" x="328.952153" y="247.02477" style="fill: #ff7f0e; stroke: #ff7f0e"/>
     <use xlink:href="#mc5e4495025" x="355.650718" y="274.035983" style="fill: #ff7f0e; stroke: #ff7f0e"/>
     <use xlink:href="#mc5e4495025" x="382.349282" y="290.917992" style="fill: #ff7f0e; stroke: #ff7f0e"/>
     <use xlink:href="#mc5e4495025" x="409.047847" y="300.12636" style="fill: #ff7f0e; stroke: #ff7f0e"/>
     <use xlink:href="#mc5e4495025" x="435.746411" y="304.60265" style="fill: #ff7f0e; stroke: #ff7f0e"/>
     <use xlink:href="#mc5e4495025" x="462.444976" y="306.57025" style="fill: #ff7f0e; stroke: #ff7f0e"/>
     <use xlink:href="#mc5e4495025" x="489.143541" y="307.360804" style="fill: #ff7f0e; stroke: #ff7f0e"/>
     <use xlink:href="#mc5e4495025" x="515.842105" y="307.653601" style="fill: #ff7f0e; stroke: #ff7f0e"/>
     <use xlink:href="#mc5e4495025" x="542.54067" y="307.75425" style="fill: #ff7f0e; stroke: #ff7f0e"/>
     <use xlink:href="#mc5e4495025" x="569.239234" y="307.786544" style="fill: #ff7f0e; stroke: #ff7f0e"/>
     <use xlink:href="#mc5e4495025" x="595.937799" y="307.796262" style="fill: #ff7f0e; stroke: #ff7f0e"/>
     <use xlink:href="#mc5e4495025" x="622.636364" y="307.799016" style="fill: #ff7f0e; stroke: #ff7f0e"/>
    </g>
   </g>
   <g id="line2d_31">
    <path d="M 115.363636 307.757732 
L 142.062201 307.377317 
L 168.760766 305.686585 
L 195.45933 300.755285 
L 222.157895 290.188212 
L 248.856459 272.576424 
L 275.555024 249.09404 
L 302.253589 223.934343 
L 328.952153 202.967929 
L 355.650718 191.319921 
L 382.349282 191.319921 
L 409.047847 201.909019 
L 435.746411 219.557516 
L 462.444976 239.921166 
L 489.143541 259.315119 
L 515.842105 275.476746 
L 542.54067 287.597966 
L 569.239234 295.916451 
L 595.937799 301.198028 
L 622.636364 304.325278 
" clip-path="url(#pae103c7114)" style="fill: none; stroke: #2ca02c; stroke-width: 1.5; stroke-linecap: square"/>
    <defs>
     <path id="m1c0d348077" d="M 0 3 
C 0.795609 3 1.55874 2.683901 2.12132 2.12132 
C 2.683901 1.55874 3 0.795609 3 0 
C 3 -0.795609 2.683901 -1.55874 2.12132 -2.12132 
C 1.55874 -2.683901 0.795609 -3 0 -3 
C -0.795609 -3 -1.55874 -2.683901 -2.12132 -2.12132 
C -2.683901 -1.55874 -3 -0.795609 -3 0 
C -3 0.795609 -2.683901 1.55874 -2.12132 2.12132 
C -1.55874 2.683901 -0.795609 3 0 3 
z
" style="stroke: #2ca02c"/>
    </defs>
    <g clip-path="url(#pae103c7114)">
     <use xlink:href="#m1c0d348077" x="115.363636" y="307.757732" style="fill: #2ca02c; stroke: #2ca02c"/>
     <use xlink:href="#m1c0d348077" x="142.062201" y="307.377317" style="fill: #2ca02c; stroke: #2ca02c"/>
     <use xlink:href="#m1c0d348077" x="168.760766" y="305.686585" style="fill: #2ca02c; stroke: #2ca02c"/>
     <use xlink:href="#m1c0d348077" x="195.45933" y="300.755285" style="fill: #2ca02c; stroke: #2ca02c"/>
     <use xlink:href="#m1c0d348077" x="222.157895" y="290.188212" style="fill: #2ca02c; stroke: #2ca02c"/>
     <use xlink:href="#m1c0d348077" x="248.856459" y="272.576424" style="fill: #2ca02c; stroke: #2ca02c"/>
     <use xlink:href="#m1c0d348077" x="275.555024" y="249.09404" style="fill: #2ca02c; stroke: #2ca02c"/>
     <use xlink:href="#m1c0d348077" x="302.253589" y="223.934343" style="fill: #2ca02c; stroke: #2ca02c"/>
     <use xlink:href="#m1c0d348077" x="328.952153" y="202.967929" style="fill: #2ca02c; stroke: #2ca02c"/>
     <use xlink:href="#m1c0d348077" x="355.650718" y="191.319921" style="fill: #2ca02c; stroke: #2ca02c"/>
     <use xlink:href="#m1c0d348077" x="382.349282" y="191.319921" style="fill: #2ca02c; stroke: #2ca02c"/>
     <use xlink:href="#m1c0d348077" x="409.047847" y="201.909019" style="fill: #2ca02c; stroke: #2ca02c"/>
     <use xlink:href="#m1c0d348077" x="435.746411" y="219.557516" style="fill: #2ca02c; stroke: #2ca02c"/>
     <use xlink:href="#m1c0d348077" x="462.444976" y="239.921166" style="fill: #2ca02c; stroke: #2ca02c"/>
     <use xlink:href="#m1c0d348077" x="489.143541" y="259.315119" style="fill: #2ca02c; stroke: #2ca02c"/>
     <use xlink:href="#m1c0d348077" x="515.842105" y="275.476746" style="fill: #2ca02c; stroke: #2ca02c"/>
     <use xlink:href="#m1c0d348077" x="542.54067" y="287.597966" style="fill: #2ca02c; stroke: #2ca02c"/>
     <use xlink:href="#m1c0d348077" x="569.239234" y="295.916451" style="fill: #2ca02c; stroke: #2ca02c"/>
     <use xlink:href="#m1c0d348077" x="595.937799" y="301.198028" style="fill: #2ca02c; stroke: #2ca02c"/>
     <use xlink:href="#m1c0d348077" x="622.636364" y="304.325278" style="fill: #2ca02c; stroke: #2ca02c"/>
    </g>
   </g>
   <g id="patch_3">
    <path d="M 90 320.4 
L 90 43.2 
" style="fill: none; stroke: #000000; stroke-width: 0.8; stroke-linejoin: miter; stroke-linecap: square"/>
   </g>
   <g id="patch_4">
    <path d="M 648 320.4 
L 648 43.2 
" style="fill: none; stroke: #000000; stroke-width: 0.8; stroke-linejoin: miter; stroke-linecap: square"/>
   </g>
   <g id="patch_5">
    <path d="M 90 320.4 
L 648 320.4 
" style="fill: none; stroke: #000000; stroke-width: 0.8; stroke-linejoin: miter; stroke-linecap: square"/>
   </g>
   <g id="patch_6">
    <path d="M 90 43.2 
L 648 43.2 
" style="fill: none; stroke: #000000; stroke-width: 0.8; stroke-linejoin: miter; stroke-linecap: square"/>
   </g>
   <g id="text_17">
    <!-- Poisson Distribution for Different $\lambda$ Values -->
    <g transform="translate(243.36 37.2) scale(0.12 -0.12)">
     <defs>
      <path id="DejaVuSans-44" d="M 1259 4147 
L 1259 519 
L 2022 519 
Q 2988 519 3436 956 
Q 3884 1394 3884 2338 
Q 3884 3275 3436 3711 
Q 2988 4147 2022 4147 
L 1259 4147 
z
M 628 4666 
L 1925 4666 
Q 3281 4666 3915 4102 
Q 4550 3538 4550 2338 
Q 4550 1131 3912 565 
Q 3275 0 1925 0 
L 628 0 
L 628 4666 
z
" transform="scale(0.015625)"/>
      <path id="DejaVuSans-Oblique-3bb" d="M 2350 4316 
L 3125 0 
L 2516 0 
L 2038 2588 
L 328 0 
L -281 0 
L 1903 3356 
L 1794 3975 
Q 1725 4369 1391 4369 
L 1091 4369 
L 1184 4863 
L 1550 4856 
Q 2253 4847 2350 4316 
z
" transform="scale(0.015625)"/>
      <path id="DejaVuSans-56" d="M 1831 0 
L 50 4666 
L 709 4666 
L 2188 738 
L 3669 4666 
L 4325 4666 
L 2547 0 
L 1831 0 
z
" transform="scale(0.015625)"/>
     </defs>
     <use xlink:href="#DejaVuSans-50" transform="translate(0 0.015625)"/>
     <use xlink:href="#DejaVuSans-6f" transform="translate(60.302734 0.015625)"/>
     <use xlink:href="#DejaVuSans-69" transform="translate(121.484375 0.015625)"/>
     <use xlink:href="#DejaVuSans-73" transform="translate(149.267578 0.015625)"/>
     <use xlink:href="#DejaVuSans-73" transform="translate(201.367188 0.015625)"/>
     <use xlink:href="#DejaVuSans-6f" transform="translate(253.466797 0.015625)"/>
     <use xlink:href="#DejaVuSans-6e" transform="translate(314.648438 0.015625)"/>
     <use xlink:href="#DejaVuSans-20" transform="translate(378.027344 0.015625)"/>
     <use xlink:href="#DejaVuSans-44" transform="translate(409.814453 0.015625)"/>
     <use xlink:href="#DejaVuSans-69" transform="translate(486.816406 0.015625)"/>
     <use xlink:href="#DejaVuSans-73" transform="translate(514.599609 0.015625)"/>
     <use xlink:href="#DejaVuSans-74" transform="translate(566.699219 0.015625)"/>
     <use xlink:href="#DejaVuSans-72" transform="translate(605.908203 0.015625)"/>
     <use xlink:href="#DejaVuSans-69" transform="translate(647.021484 0.015625)"/>
     <use xlink:href="#DejaVuSans-62" transform="translate(674.804688 0.015625)"/>
     <use xlink:href="#DejaVuSans-75" transform="translate(738.28125 0.015625)"/>
     <use xlink:href="#DejaVuSans-74" transform="translate(801.660156 0.015625)"/>
     <use xlink:href="#DejaVuSans-69" transform="translate(840.869141 0.015625)"/>
     <use xlink:href="#DejaVuSans-6f" transform="translate(868.652344 0.015625)"/>
     <use xlink:href="#DejaVuSans-6e" transform="translate(929.833984 0.015625)"/>
     <use xlink:href="#DejaVuSans-20" transform="translate(993.212891 0.015625)"/>
     <use xlink:href="#DejaVuSans-66" transform="translate(1025 0.015625)"/>
     <use xlink:href="#DejaVuSans-6f" transform="translate(1060.205078 0.015625)"/>
     <use xlink:href="#DejaVuSans-72" transform="translate(1121.386719 0.015625)"/>
     <use xlink:href="#DejaVuSans-20" transform="translate(1162.5 0.015625)"/>
     <use xlink:href="#DejaVuSans-44" transform="translate(1194.287109 0.015625)"/>
     <use xlink:href="#DejaVuSans-69" transform="translate(1271.289062 0.015625)"/>
     <use xlink:href="#DejaVuSans-66" transform="translate(1299.072266 0.015625)"/>
     <use xlink:href="#DejaVuSans-66" transform="translate(1334.277344 0.015625)"/>
     <use xlink:href="#DejaVuSans-65" transform="translate(1369.482422 0.015625)"/>
     <use xlink:href="#DejaVuSans-72" transform="translate(1431.005859 0.015625)"/>
     <use xlink:href="#DejaVuSans-65" transform="translate(1472.119141 0.015625)"/>
     <use xlink:href="#DejaVuSans-6e" transform="translate(1533.642578 0.015625)"/>
     <use xlink:href="#DejaVuSans-74" transform="translate(1597.021484 0.015625)"/>
     <use xlink:href="#DejaVuSans-20" transform="translate(1636.230469 0.015625)"/>
     <use xlink:href="#DejaVuSans-Oblique-3bb" transform="translate(1668.017578 0.015625)"/>
     <use xlink:href="#DejaVuSans-20" transform="translate(1727.197266 0.015625)"/>
     <use xlink:href="#DejaVuSans-56" transform="translate(1758.984375 0.015625)"/>
     <use xlink:href="#DejaVuSans-61" transform="translate(1827.392578 0.015625)"/>
     <use xlink:href="#DejaVuSans-6c" transform="translate(1888.671875 0.015625)"/>
     <use xlink:href="#DejaVuSans-75" transform="translate(1916.455078 0.015625)"/>
     <use xlink:href="#DejaVuSans-65" transform="translate(1979.833984 0.015625)"/>
     <use xlink:href="#DejaVuSans-73" transform="translate(2041.357422 0.015625)"/>
    </g>
   </g>
   <g id="legend_1">
    <g id="patch_7">
     <path d="M 578 95.234375 
L 641 95.234375 
Q 643 95.234375 643 93.234375 
L 643 50.2 
Q 643 48.2 641 48.2 
L 578 48.2 
Q 576 48.2 576 50.2 
L 576 93.234375 
Q 576 95.234375 578 95.234375 
z
" style="fill: #ffffff; opacity: 0.8; stroke: #cccccc; stroke-linejoin: miter"/>
    </g>
    <g id="line2d_32">
     <path d="M 580 56.298437 
L 590 56.298437 
L 600 56.298437 
" style="fill: none; stroke: #1f77b4; stroke-width: 1.5; stroke-linecap: square"/>
     <g>
      <use xlink:href="#m13b8e38df0" x="590" y="56.298437" style="fill: #1f77b4; stroke: #1f77b4"/>
     </g>
    </g>
    <g id="text_18">
     <!-- $\lambda = 2$ -->
     <g transform="translate(608 59.798437) scale(0.1 -0.1)">
      <defs>
       <path id="DejaVuSans-3d" d="M 678 2906 
L 4684 2906 
L 4684 2381 
L 678 2381 
L 678 2906 
z
M 678 1631 
L 4684 1631 
L 4684 1100 
L 678 1100 
L 678 1631 
z
" transform="scale(0.015625)"/>
      </defs>
      <use xlink:href="#DejaVuSans-Oblique-3bb" transform="translate(0 0.015625)"/>
      <use xlink:href="#DejaVuSans-3d" transform="translate(78.662109 0.015625)"/>
      <use xlink:href="#DejaVuSans-32" transform="translate(181.933594 0.015625)"/>
     </g>
    </g>
    <g id="line2d_33">
     <path d="M 580 70.976562 
L 590 70.976562 
L 600 70.976562 
" style="fill: none; stroke: #ff7f0e; stroke-width: 1.5; stroke-linecap: square"/>
     <g>
      <use xlink:href="#mc5e4495025" x="590" y="70.976562" style="fill: #ff7f0e; stroke: #ff7f0e"/>
     </g>
    </g>
    <g id="text_19">
     <!-- $\lambda = 5$ -->
     <g transform="translate(608 74.476562) scale(0.1 -0.1)">
      <use xlink:href="#DejaVuSans-Oblique-3bb" transform="translate(0 0.015625)"/>
      <use xlink:href="#DejaVuSans-3d" transform="translate(78.662109 0.015625)"/>
      <use xlink:href="#DejaVuSans-35" transform="translate(181.933594 0.015625)"/>
     </g>
    </g>
    <g id="line2d_34">
     <path d="M 580 85.654687 
L 590 85.654687 
L 600 85.654687 
" style="fill: none; stroke: #2ca02c; stroke-width: 1.5; stroke-linecap: square"/>
     <g>
      <use xlink:href="#m1c0d348077" x="590" y="85.654687" style="fill: #2ca02c; stroke: #2ca02c"/>
     </g>
    </g>
    <g id="text_20">
     <!-- $\lambda = 10$ -->
     <g transform="translate(608 89.154687) scale(0.1 -0.1)">
      <use xlink:href="#DejaVuSans-Oblique-3bb" transform="translate(0 0.015625)"/>
      <use xlink:href="#DejaVuSans-3d" transform="translate(78.662109 0.015625)"/>
      <use xlink:href="#DejaVuSans-31" transform="translate(181.933594 0.015625)"/>
      <use xlink:href="#DejaVuSans-30" transform="translate(245.556641 0.015625)"/>
     </g>
    </g>
   </g>
  </g>
 </g>
 <defs>
  <clipPath id="pae103c7114">
   <rect x="90" y="43.2" width="558" height="277.2"/>
  </clipPath>
 </defs>
</svg>
